<?xml version="1.0" encoding="UTF-8"?>
<!DOCTYPE svg PUBLIC "-//W3C//DTD SVG 1.1//EN" "http://www.w3.org/Graphics/SVG/1.1/DTD/svg11.dtd">
<svg xmlns="http://www.w3.org/2000/svg" version="1.1" width="1500px" height="500px" style="shape-rendering:geometricPrecision; text-rendering:geometricPrecision; image-rendering:optimizeQuality; fill-rule:evenodd; clip-rule:evenodd" xmlns:xlink="http://www.w3.org/1999/xlink">
<g><path style="opacity:1" fill="#fefefe" d="M -0.5,-0.5 C 499.5,-0.5 999.5,-0.5 1499.5,-0.5C 1499.5,166.167 1499.5,332.833 1499.5,499.5C 999.5,499.5 499.5,499.5 -0.5,499.5C -0.5,332.833 -0.5,166.167 -0.5,-0.5 Z"/></g>
<g><path style="opacity:1" fill="#020202" d="M 231.5,77.5 C 256.505,75.4661 279.838,80.6327 301.5,93C 308.853,98.6934 314.353,105.86 318,114.5C 319.412,126.104 319.912,137.771 319.5,149.5C 305.496,149.667 291.496,149.5 277.5,149C 279.222,132.708 271.889,123.375 255.5,121C 240.409,117.81 227.242,121.31 216,131.5C 208.693,144.119 210.859,154.953 222.5,164C 237.285,172.392 252.619,179.725 268.5,186C 287.019,193.501 302.519,205.001 315,220.5C 330.736,249.981 328.403,277.981 308,304.5C 289.647,322.068 267.647,330.401 242,329.5C 208.702,328.75 181.202,315.917 159.5,291C 167,281.5 174.5,272 182,262.5C 183.062,261.101 184.395,260.101 186,259.5C 195.721,268.545 206.554,276.045 218.5,282C 235.048,289.596 251.381,289.263 267.5,281C 280.162,269.89 281.495,257.723 271.5,244.5C 267.012,240.757 262.346,237.257 257.5,234C 236.699,224.433 216.366,214.1 196.5,203C 166.786,181.856 157.953,154.023 170,119.5C 183.609,95.443 204.109,81.443 231.5,77.5 Z"/></g>
<g><path style="opacity:1" fill="#020202" d="M 631.5,77.5 C 676.66,73.6769 714.493,88.3435 745,121.5C 776.109,163.106 781.776,208.106 762,256.5C 734.811,309.358 691.311,333.524 631.5,329C 582.841,321.929 549.007,295.762 530,250.5C 510.616,195.402 521.783,147.569 563.5,107C 583.458,90.8527 606.125,81.0193 631.5,77.5 Z"/></g>
<g><path style="opacity:1" fill="#010101" d="M 482.5,222.5 C 456.5,222.5 430.5,222.5 404.5,222.5C 404.17,242.34 404.503,262.007 405.5,281.5C 406.028,282.721 406.695,283.887 407.5,285C 428.5,285.667 449.5,285.667 470.5,285C 471.416,284.626 472.25,284.126 473,283.5C 473.187,276.919 473.687,270.419 474.5,264C 488.496,263.5 502.496,263.333 516.5,263.5C 516.667,278.837 516.5,294.17 516,309.5C 514.67,316.331 510.837,321.164 504.5,324C 461.213,325.645 417.879,325.978 374.5,325C 365.545,323.046 360.379,317.546 359,308.5C 358.5,246.168 358.333,183.834 358.5,121.5C 351.167,121.5 343.833,121.5 336.5,121.5C 336.5,108.167 336.5,94.8333 336.5,81.5C 388.168,81.3333 439.834,81.5 491.5,82C 499.138,83.6365 504.305,88.1365 507,95.5C 507.5,111.497 507.667,127.497 507.5,143.5C 493.5,143.5 479.5,143.5 465.5,143.5C 465.666,137.491 465.499,131.491 465,125.5C 464.535,124.069 463.701,122.903 462.5,122C 443.503,121.5 424.503,121.333 405.5,121.5C 405.5,141.833 405.5,162.167 405.5,182.5C 431.169,182.333 456.835,182.5 482.5,183C 483.83,196.265 483.83,209.431 482.5,222.5 Z"/></g>
<g><path style="opacity:1" fill="#fdfdfd" d="M 633.5,121.5 C 674.554,118.1 703.387,135.1 720,172.5C 730.263,206.431 723.929,236.765 701,263.5C 676.63,286.215 648.797,291.715 617.5,280C 589.796,266.464 573.963,244.297 570,213.5C 566.54,176.252 580.707,148.086 612.5,129C 619.435,125.969 626.435,123.469 633.5,121.5 Z"/></g>
<g><path style="opacity:1" fill="#090808" d="M 960.5,219.5 C 955.862,221.212 951.529,220.712 947.5,218C 944.065,213.297 941.565,208.13 940,202.5C 939.014,216.032 935.347,216.032 929,202.5C 928.192,192.742 925.026,183.909 919.5,176C 908.898,170.032 898.231,170.032 887.5,176C 885.627,177.704 883.96,179.537 882.5,181.5C 881.883,181.611 881.383,181.944 881,182.5C 871.152,171.132 859.319,168.299 845.5,174C 837.799,181.087 833.966,189.92 834,200.5C 832.522,206.477 829.022,210.81 823.5,213.5C 822.675,209.878 822.175,206.211 822,202.5C 820.858,209.464 817.692,215.131 812.5,219.5C 809.592,220.569 806.592,220.736 803.5,220C 802.572,219.612 801.905,218.945 801.5,218C 822.986,184.503 849.486,155.336 881,130.5C 908.113,152.611 932.113,177.611 953,205.5C 956.309,209.787 958.809,214.453 960.5,219.5 Z"/></g>
<g><path style="opacity:1" fill="#a71e24" d="M 884.5,150.5 C 884.56,146.515 882.56,144.848 878.5,145.5C 878.5,147.5 878.5,149.5 878.5,151.5C 875.998,149.201 875.998,146.701 878.5,144C 885.014,142.341 887.014,144.507 884.5,150.5 Z"/></g>
<g><path style="opacity:1" fill="#e81e26" d="M 884.5,150.5 C 883.596,151.209 883.263,152.209 883.5,153.5C 882.292,154.234 880.959,154.567 879.5,154.5C 879.443,153.391 879.11,152.391 878.5,151.5C 878.5,149.5 878.5,147.5 878.5,145.5C 882.56,144.848 884.56,146.515 884.5,150.5 Z"/></g>
<g><path style="opacity:1" fill="#020202" d="M 1137.5,180.5 C 1137.5,189.167 1137.5,197.833 1137.5,206.5C 1125.17,206.5 1112.83,206.5 1100.5,206.5C 1100.81,202.629 1100.48,198.962 1099.5,195.5C 1097.31,190.817 1093.64,187.65 1088.5,186C 1054.19,180.064 1032.69,193.897 1024,227.5C 1020.19,253.375 1029.36,272.875 1051.5,286C 1080.99,296.501 1106.82,290.668 1129,268.5C 1135.29,278.249 1141.46,288.082 1147.5,298C 1123.47,321.792 1094.47,332.125 1060.5,329C 1008.86,319.85 981.855,289.017 979.5,236.5C 985.243,181.09 1015.91,151.424 1071.5,147.5C 1091.01,147.043 1109.01,151.877 1125.5,162C 1131.41,166.991 1135.41,173.158 1137.5,180.5 Z"/></g>
<g><path style="opacity:1" fill="#020202" d="M 1327.5,245.5 C 1287.5,245.5 1247.5,245.5 1207.5,245.5C 1207.26,246.791 1207.6,247.791 1208.5,248.5C 1212.49,272.656 1226.49,287.156 1250.5,292C 1272.39,293.759 1291.72,287.592 1308.5,273.5C 1314.88,283.1 1320.88,292.933 1326.5,303C 1305.72,320.708 1281.55,329.541 1254,329.5C 1215.57,328.464 1187.91,310.798 1171,276.5C 1158.79,244.147 1161.45,213.147 1179,183.5C 1196.85,159.574 1220.85,147.574 1251,147.5C 1295.09,149.253 1320.76,171.92 1328,215.5C 1328.82,225.675 1328.66,235.675 1327.5,245.5 Z"/></g>
<g><path style="opacity:1" fill="#520d14" d="M 884.5,150.5 C 884.369,151.376 884.702,152.043 885.5,152.5C 887.643,151.246 889.643,151.246 891.5,152.5C 888.833,152.833 886.167,153.167 883.5,153.5C 883.263,152.209 883.596,151.209 884.5,150.5 Z"/></g>
<g><path style="opacity:1" fill="#eb1c25" d="M 876.5,159.5 C 873.941,159.802 871.607,159.468 869.5,158.5C 869.156,153.745 871.156,152.412 875.5,154.5C 876.452,156.045 876.785,157.712 876.5,159.5 Z"/></g>
<g><path style="opacity:1" fill="#b71d24" d="M 879.5,154.5 C 880.959,154.567 882.292,154.234 883.5,153.5C 886.167,153.167 888.833,152.833 891.5,152.5C 892.993,153.312 893.66,154.645 893.5,156.5C 893.48,157.726 893.147,158.726 892.5,159.5C 892.5,157.833 892.5,156.167 892.5,154.5C 888.936,154.151 885.602,154.817 882.5,156.5C 883.612,157.265 884.279,158.265 884.5,159.5C 887.072,166.414 884.905,169.081 878,167.5C 877.204,164.961 877.371,162.628 878.5,160.5C 878.5,162.5 878.5,164.5 878.5,166.5C 880.167,166.5 881.833,166.5 883.5,166.5C 883.382,163.312 882.549,160.312 881,157.5C 880.617,158.056 880.117,158.389 879.5,158.5C 878.391,158.557 877.391,158.89 876.5,159.5C 876.785,157.712 876.452,156.045 875.5,154.5C 871.156,152.412 869.156,153.745 869.5,158.5C 868.193,156.777 868.193,154.943 869.5,153C 873.103,152.157 876.436,152.657 879.5,154.5 Z"/></g>
<g><path style="opacity:1" fill="#ea1b24" d="M 892.5,159.5 C 889.833,159.5 887.167,159.5 884.5,159.5C 884.279,158.265 883.612,157.265 882.5,156.5C 885.602,154.817 888.936,154.151 892.5,154.5C 892.5,156.167 892.5,157.833 892.5,159.5 Z"/></g>
<g><path style="opacity:1" fill="#f11924" d="M 878.5,160.5 C 878.833,159.833 879.167,159.167 879.5,158.5C 880.117,158.389 880.617,158.056 881,157.5C 882.549,160.312 883.382,163.312 883.5,166.5C 881.833,166.5 880.167,166.5 878.5,166.5C 878.5,164.5 878.5,162.5 878.5,160.5 Z"/></g>
<g><path style="opacity:1" fill="#f7f6f6" d="M 882.5,181.5 C 883.96,179.537 885.627,177.704 887.5,176C 898.231,170.032 908.898,170.032 919.5,176C 925.026,183.909 928.192,192.742 929,202.5C 935.347,216.032 939.014,216.032 940,202.5C 941.565,208.13 944.065,213.297 947.5,218C 951.529,220.712 955.862,221.212 960.5,219.5C 959.954,221.303 959.12,222.97 958,224.5C 957.383,223.551 957.549,222.718 958.5,222C 955.901,221.231 953.401,221.398 951,222.5C 950.184,221.177 949.017,220.511 947.5,220.5C 946.735,220.077 945.902,219.743 945,219.5C 943.7,220.707 942.2,221.374 940.5,221.5C 940.5,222.833 940.5,224.167 940.5,225.5C 938.517,225.843 937.183,225.176 936.5,223.5C 936.5,221.833 936.5,220.167 936.5,218.5C 934.5,218.5 932.5,218.5 930.5,218.5C 930.5,220.167 930.5,221.833 930.5,223.5C 932.336,225.009 934.336,226.509 936.5,228C 935.748,228.671 935.414,229.504 935.5,230.5C 927.813,228.996 921.313,230.996 916,236.5C 915.781,237.938 915.281,239.271 914.5,240.5C 910.089,239.112 906.589,240.445 904,244.5C 900.207,249.214 898.874,254.547 900,260.5C 900.637,262.303 901.803,263.636 903.5,264.5C 899.176,272.762 900.843,279.929 908.5,286C 912.304,289.353 915.804,289.187 919,285.5C 918.815,289.647 920.648,292.48 924.5,294C 929.921,294.839 935.254,294.506 940.5,293C 944.352,291.48 946.185,288.647 946,284.5C 946.383,285.056 946.883,285.389 947.5,285.5C 948.312,286.993 949.645,287.66 951.5,287.5C 952.994,287.291 954.161,286.624 955,285.5C 955.483,286.448 955.649,287.448 955.5,288.5C 939.955,302.848 922.955,305.015 904.5,295C 897.251,288.335 892.751,280.169 891,270.5C 889.259,274.094 889.092,277.761 890.5,281.5C 890.154,282.696 889.654,282.696 889,281.5C 884.504,274.027 883.171,266.027 885,257.5C 882.634,251.601 879.967,251.267 877,256.5C 876.667,262.5 876.333,268.5 876,274.5C 874.92,276.996 873.586,279.33 872,281.5C 871.857,277.381 871.19,273.381 870,269.5C 865.198,294.992 850.031,305.158 824.5,300C 802.293,291.803 792.46,275.97 795,252.5C 796.637,248.708 798.47,245.041 800.5,241.5C 800.058,240.261 799.391,239.261 798.5,238.5C 801.583,238.916 804.583,239.583 807.5,240.5C 803.869,244.094 801.535,248.427 800.5,253.5C 800.648,256.63 801.982,259.13 804.5,261C 801.241,262.25 799.575,264.583 799.5,268C 800.396,274.792 803.396,280.459 808.5,285C 810.899,285.711 813.232,285.544 815.5,284.5C 816.092,288.928 818.425,292.095 822.5,294C 827.167,294.667 831.833,294.667 836.5,294C 840.406,293.027 842.573,290.527 843,286.5C 844.913,288.187 847.08,288.687 849.5,288C 858.299,283.24 861.799,276.073 860,266.5C 859.075,265.953 858.242,265.287 857.5,264.5C 861.762,261.974 863.262,258.307 862,253.5C 860.313,247.492 856.813,242.992 851.5,240C 849.765,239.349 848.098,239.515 846.5,240.5C 845.632,234.8 842.299,231.634 836.5,231C 832.833,230.333 829.167,230.333 825.5,231C 822.854,231.804 820.854,233.304 819.5,235.5C 818.909,234.849 818.243,234.182 817.5,233.5C 818.42,231.214 818.42,228.881 817.5,226.5C 819.176,225.817 819.843,224.483 819.5,222.5C 818.5,222.5 817.5,222.5 816.5,222.5C 817.626,221.142 817.626,219.808 816.5,218.5C 815.808,219.025 815.308,219.692 815,220.5C 814.329,219.748 813.496,219.414 812.5,219.5C 817.692,215.131 820.858,209.464 822,202.5C 822.175,206.211 822.675,209.878 823.5,213.5C 829.022,210.81 832.522,206.477 834,200.5C 833.966,189.92 837.799,181.087 845.5,174C 859.319,168.299 871.152,171.132 881,182.5C 881.383,181.944 881.883,181.611 882.5,181.5 Z"/></g>
<g><path style="opacity:1" fill="#0c0c0c" d="M 861.5,180.5 C 867.577,180.196 873.577,180.696 879.5,182C 864.298,185.924 858.464,195.424 862,210.5C 864.613,216.113 868.613,220.446 874,223.5C 875.031,226.856 873.864,228.856 870.5,229.5C 865.649,227.985 861.982,224.985 859.5,220.5C 856.743,219.971 854.243,218.971 852,217.5C 849.044,211.712 848.878,205.879 851.5,200C 849.467,198.301 847.8,196.301 846.5,194C 849.791,187.54 854.791,183.04 861.5,180.5 Z"/></g>
<g><path style="opacity:1" fill="#0c0c0c" d="M 882.5,181.5 C 891.601,179.495 900.267,180.661 908.5,185C 911.612,187.439 913.945,190.439 915.5,194C 914.713,196.621 913.046,198.454 910.5,199.5C 913.197,205.55 913.03,211.55 910,217.5C 908.267,219.602 906.267,219.935 904,218.5C 901.539,224.129 897.372,227.796 891.5,229.5C 888.025,228.857 886.859,226.857 888,223.5C 902.928,214.27 905.428,202.436 895.5,188C 891.353,185.26 887.02,183.093 882.5,181.5 Z"/></g>
<g><path style="opacity:1" fill="#fcfcfc" d="M 1240.5,181.5 C 1266.55,178.23 1281.22,189.563 1284.5,215.5C 1259.5,215.5 1234.5,215.5 1209.5,215.5C 1212.99,197.789 1223.33,186.456 1240.5,181.5 Z"/></g>
<g><path style="opacity:1" fill="#e54a57" d="M 885.5,189.5 C 887.929,189.585 889.929,190.585 891.5,192.5C 888.912,193.584 886.745,195.251 885,197.5C 885.083,194.881 885.25,192.214 885.5,189.5 Z"/></g>
<g><path style="opacity:1" fill="#de4a4f" d="M 876.5,188.5 C 877.634,190.966 877.801,193.633 877,196.5C 875.075,194.787 872.908,193.453 870.5,192.5C 872.29,190.684 874.29,189.351 876.5,188.5 Z"/></g>
<g><path style="opacity:1" fill="#272021" d="M 879.5,201.5 C 880.833,201.5 882.167,201.5 883.5,201.5C 883.778,203.346 883.111,204.68 881.5,205.5C 879.889,204.68 879.222,203.346 879.5,201.5 Z"/></g>
<g><path style="opacity:1" fill="#e7363c" d="M 894.5,199.5 C 895.797,201.693 895.797,204.027 894.5,206.5C 892.664,205.081 890.664,203.914 888.5,203C 891.025,202.576 893.025,201.41 894.5,199.5 Z"/></g>
<g><path style="opacity:1" fill="#d13c40" d="M 866.5,199.5 C 868.612,200.44 870.612,201.606 872.5,203C 870.391,204.141 868.558,205.641 867,207.5C 866.503,204.854 866.336,202.187 866.5,199.5 Z"/></g>
<g><path style="opacity:1" fill="#4b4b4b" d="M 1137.5,180.5 C 1138.49,189.318 1138.83,198.318 1138.5,207.5C 1125.5,207.5 1112.5,207.5 1099.5,207.5C 1099.5,203.5 1099.5,199.5 1099.5,195.5C 1100.48,198.962 1100.81,202.629 1100.5,206.5C 1112.83,206.5 1125.17,206.5 1137.5,206.5C 1137.5,197.833 1137.5,189.167 1137.5,180.5 Z"/></g>
<g><path style="opacity:1" fill="#e42d32" d="M 918.5,209.5 C 925.303,208.735 927.303,211.568 924.5,218C 916.749,219.091 914.749,216.258 918.5,209.5 Z"/></g>
<g><path style="opacity:1" fill="#e7434f" d="M 885.5,210.5 C 887.482,211.491 889.482,212.491 891.5,213.5C 885.415,219.726 883.415,218.726 885.5,210.5 Z"/></g>
<g><path style="opacity:1" fill="#e12b32" d="M 837.5,209.5 C 844.997,208.804 846.997,211.637 843.5,218C 836.781,218.726 834.781,215.893 837.5,209.5 Z"/></g>
<g><path style="opacity:1" fill="#dc4854" d="M 876.5,209.5 C 877.8,212.024 877.8,214.691 876.5,217.5C 874.483,216.826 872.817,215.659 871.5,214C 873.618,212.951 875.284,211.451 876.5,209.5 Z"/></g>
<g><path style="opacity:1" fill="#dd3037" d="M 826.5,218.5 C 828.167,218.5 829.833,218.5 831.5,218.5C 831.5,220.167 831.5,221.833 831.5,223.5C 829.5,223.5 827.5,223.5 825.5,223.5C 825.366,221.708 825.699,220.042 826.5,218.5 Z"/></g>
<g><path style="opacity:1" fill="#dc3538" d="M 936.5,223.5 C 934.5,223.5 932.5,223.5 930.5,223.5C 930.5,221.833 930.5,220.167 930.5,218.5C 932.5,218.5 934.5,218.5 936.5,218.5C 936.5,220.167 936.5,221.833 936.5,223.5 Z"/></g>
<g><path style="opacity:1" fill="#777777" d="M 482.5,222.5 C 457.005,223.498 431.339,223.831 405.5,223.5C 405.5,242.833 405.5,262.167 405.5,281.5C 404.503,262.007 404.17,242.34 404.5,222.5C 430.5,222.5 456.5,222.5 482.5,222.5 Z"/></g>
<g><path style="opacity:1" fill="#da4859" d="M 816.5,222.5 C 817.5,222.5 818.5,222.5 819.5,222.5C 819.843,224.483 819.176,225.817 817.5,226.5C 816.566,225.432 816.232,224.099 816.5,222.5 Z"/></g>
<g><path style="opacity:1" fill="#eeebec" d="M 947.5,220.5 C 947.007,222.806 946.674,225.139 946.5,227.5C 945.07,227.579 943.736,227.246 942.5,226.5C 939.567,228.738 939.901,229.738 943.5,229.5C 943.5,231.833 943.5,234.167 943.5,236.5C 945.766,236.859 947.599,236.192 949,234.5C 949.71,235.973 950.876,236.64 952.5,236.5C 952.459,232.757 953.126,232.59 954.5,236C 953.366,237.016 953.699,237.683 955.5,238C 955.167,238.333 954.833,238.667 954.5,239C 956.076,239.44 957.41,240.273 958.5,241.5C 959.417,240.873 960.417,240.539 961.5,240.5C 963.297,244.771 965.13,249.104 967,253.5C 969.384,267.359 965.55,279.026 955.5,288.5C 955.649,287.448 955.483,286.448 955,285.5C 954.161,286.624 952.994,287.291 951.5,287.5C 949.645,287.66 948.312,286.993 947.5,285.5C 949.989,285.702 952.323,285.202 954.5,284C 960.272,278.294 962.438,271.461 961,263.5C 959.509,261.996 957.676,261.163 955.5,261C 960.226,258.612 961.726,254.778 960,249.5C 957.838,243 953.505,239 947,237.5C 944.966,237.354 943.299,238.02 942,239.5C 941.918,234.928 939.752,231.928 935.5,230.5C 935.414,229.504 935.748,228.671 936.5,228C 934.336,226.509 932.336,225.009 930.5,223.5C 932.5,223.5 934.5,223.5 936.5,223.5C 937.183,225.176 938.517,225.843 940.5,225.5C 940.5,224.167 940.5,222.833 940.5,221.5C 942.2,221.374 943.7,220.707 945,219.5C 945.902,219.743 946.735,220.077 947.5,220.5 Z"/></g>
<g><path style="opacity:1" fill="#c3374f" d="M 942.5,222.5 C 943.5,222.5 944.5,222.5 945.5,222.5C 945.5,223.5 945.5,224.5 945.5,225.5C 944.5,225.5 943.5,225.5 942.5,225.5C 942.5,224.5 942.5,223.5 942.5,222.5 Z"/></g>
<g><path style="opacity:1" fill="#949494" d="M 1327.5,245.5 C 1287.66,245.835 1247.99,246.835 1208.5,248.5C 1207.6,247.791 1207.26,246.791 1207.5,245.5C 1247.5,245.5 1287.5,245.5 1327.5,245.5 Z"/></g>
<g><path style="opacity:1" fill="#0b0b0b" d="M 798.5,238.5 C 799.391,239.261 800.058,240.261 800.5,241.5C 798.47,245.041 796.637,248.708 795,252.5C 792.46,275.97 802.293,291.803 824.5,300C 850.031,305.158 865.198,294.992 870,269.5C 871.19,273.381 871.857,277.381 872,281.5C 873.586,279.33 874.92,276.996 876,274.5C 876.333,268.5 876.667,262.5 877,256.5C 879.967,251.267 882.634,251.601 885,257.5C 883.171,266.027 884.504,274.027 889,281.5C 889.654,282.696 890.154,282.696 890.5,281.5C 889.092,277.761 889.259,274.094 891,270.5C 892.751,280.169 897.251,288.335 904.5,295C 922.955,305.015 939.955,302.848 955.5,288.5C 965.55,279.026 969.384,267.359 967,253.5C 965.13,249.104 963.297,244.771 961.5,240.5C 963.048,237.416 964.048,234.082 964.5,230.5C 965.631,229.396 966.465,229.729 967,231.5C 978.238,258.358 972.404,280.525 949.5,298C 926.66,309.943 906.16,306.777 888,288.5C 890.617,295.662 894.784,301.995 900.5,307.5C 896.541,308.327 892.541,308.827 888.5,309C 890.087,309.862 891.754,310.529 893.5,311C 898.87,311.438 904.203,311.438 909.5,311C 912.167,313.333 912.167,315.667 909.5,318C 913.824,316.539 917.658,317.373 921,320.5C 922.046,327.602 918.879,330.602 911.5,329.5C 904.368,329.346 898.368,326.68 893.5,321.5C 893.167,321.667 892.833,321.833 892.5,322C 893.999,324.328 895.666,326.495 897.5,328.5C 886.346,329.495 875.012,329.828 863.5,329.5C 864.842,326.834 866.675,324.501 869,322.5C 869.667,321.833 869.667,321.167 869,320.5C 861.714,328.055 852.88,330.889 842.5,329C 838.607,325.254 838.607,321.588 842.5,318C 845.54,317.68 848.54,317.68 851.5,318C 850.167,315.667 850.167,313.333 851.5,311C 856.797,311.438 862.13,311.438 867.5,311C 869.246,310.529 870.913,309.862 872.5,309C 868.642,308.921 864.976,308.254 861.5,307C 865.867,301.766 869.867,296.266 873.5,290.5C 872.998,289.479 872.332,289.312 871.5,290C 851.422,308.475 830.088,310.142 807.5,295C 790.59,279.478 785.424,260.645 792,238.5C 795.483,226.897 797.65,226.897 798.5,238.5 Z"/></g>
<g><path style="opacity:1" fill="#0a0606" d="M 935.5,230.5 C 939.752,231.928 941.918,234.928 942,239.5C 943.299,238.02 944.966,237.354 947,237.5C 953.505,239 957.838,243 960,249.5C 961.726,254.778 960.226,258.612 955.5,261C 957.676,261.163 959.509,261.996 961,263.5C 962.438,271.461 960.272,278.294 954.5,284C 952.323,285.202 949.989,285.702 947.5,285.5C 946.883,285.389 946.383,285.056 946,284.5C 946.185,288.647 944.352,291.48 940.5,293C 935.254,294.506 929.921,294.839 924.5,294C 920.648,292.48 918.815,289.647 919,285.5C 915.804,289.187 912.304,289.353 908.5,286C 900.843,279.929 899.176,272.762 903.5,264.5C 901.803,263.636 900.637,262.303 900,260.5C 898.874,254.547 900.207,249.214 904,244.5C 906.589,240.445 910.089,239.112 914.5,240.5C 915.281,239.271 915.781,237.938 916,236.5C 921.313,230.996 927.813,228.996 935.5,230.5 Z"/></g>
<g><path style="opacity:1" fill="#0c0707" d="M 807.5,240.5 C 811.065,237.014 814.899,236.681 819,239.5C 819.49,238.207 819.657,236.873 819.5,235.5C 820.854,233.304 822.854,231.804 825.5,231C 829.167,230.333 832.833,230.333 836.5,231C 842.299,231.634 845.632,234.8 846.5,240.5C 848.098,239.515 849.765,239.349 851.5,240C 856.813,242.992 860.313,247.492 862,253.5C 863.262,258.307 861.762,261.974 857.5,264.5C 858.242,265.287 859.075,265.953 860,266.5C 861.799,276.073 858.299,283.24 849.5,288C 847.08,288.687 844.913,288.187 843,286.5C 842.573,290.527 840.406,293.027 836.5,294C 831.833,294.667 827.167,294.667 822.5,294C 818.425,292.095 816.092,288.928 815.5,284.5C 813.232,285.544 810.899,285.711 808.5,285C 803.396,280.459 800.396,274.792 799.5,268C 799.575,264.583 801.241,262.25 804.5,261C 801.982,259.13 800.648,256.63 800.5,253.5C 801.535,248.427 803.869,244.094 807.5,240.5 Z"/></g>
<g><path style="opacity:1" fill="#d82c32" d="M 829.5,242.5 C 834.806,241.641 838.14,243.807 839.5,249C 845.405,248.734 848.738,251.568 849.5,257.5C 847.881,263.013 847.048,268.68 847,274.5C 840.885,276.417 835.218,279.083 830,282.5C 826.21,282.219 823.71,280.219 822.5,276.5C 820.257,275.526 817.924,275.192 815.5,275.5C 815.5,274.167 815.5,272.833 815.5,271.5C 814.5,271.5 813.5,271.5 812.5,271.5C 812.108,268.052 812.775,264.886 814.5,262C 810.979,252.363 814.312,247.529 824.5,247.5C 825.577,245.15 827.244,243.483 829.5,242.5 Z"/></g>
<g><path style="opacity:1" fill="#d92c33" d="M 924.5,278.5 C 922.721,276.656 920.388,275.99 917.5,276.5C 913.392,273.279 912.392,269.112 914.5,264C 909.677,255.15 912.344,250.317 922.5,249.5C 922.965,245.371 925.299,243.371 929.5,243.5C 932.998,243.493 935.665,244.993 937.5,248C 947.237,248.214 950.237,252.714 946.5,261.5C 951.645,269.715 949.312,274.548 939.5,276C 935.353,283.401 930.353,284.235 924.5,278.5 Z"/></g>
<g><path style="opacity:1" fill="#faf6f4" d="M 826.5,275.5 C 826.578,272.748 826.745,270.082 827,267.5C 825.624,268.705 824.458,270.038 823.5,271.5C 817.887,272.921 815.72,270.921 817,265.5C 818.8,263.683 820.966,262.516 823.5,262C 819.42,260.935 817.254,258.435 817,254.5C 820.535,250.649 823.868,250.982 827,255.5C 827.333,253.167 827.667,250.833 828,248.5C 830.333,245.833 832.667,245.833 835,248.5C 835.186,250.9 835.686,253.234 836.5,255.5C 839.371,252.887 842.205,252.887 845,255.5C 845.457,259.571 843.623,262.238 839.5,263.5C 840.914,264.624 842.414,265.624 844,266.5C 844.102,274.076 841.102,275.409 835,270.5C 835.701,276.467 833.201,278.967 827.5,278C 826.748,277.329 826.414,276.496 826.5,275.5 Z"/></g>
<g><path style="opacity:1" fill="#faf3f2" d="M 927.5,246.5 C 932.525,246.694 935.025,249.361 935,254.5C 938.835,250.241 942.001,250.574 944.5,255.5C 943.907,259.474 941.573,261.641 937.5,262C 942.415,262.404 944.915,264.904 945,269.5C 942.447,271.729 939.614,272.062 936.5,270.5C 936.636,276.887 933.802,279.221 928,277.5C 927.667,274.833 927.333,272.167 927,269.5C 924.859,272.491 922.025,273.658 918.5,273C 915.9,270.541 915.9,268.041 918.5,265.5C 920.167,264.667 921.833,263.833 923.5,263C 918.177,262.979 915.677,260.479 916,255.5C 918.925,252.941 921.925,252.941 925,255.5C 925.057,252.189 925.89,249.189 927.5,246.5 Z"/></g>
<g><path style="opacity:1" fill="#dd7985" d="M 826.5,275.5 C 825.978,273.781 824.978,272.448 823.5,271.5C 824.458,270.038 825.624,268.705 827,267.5C 826.745,270.082 826.578,272.748 826.5,275.5 Z"/></g>
<g><path style="opacity:1" fill="#570406" d="M 917.5,276.5 C 920.388,275.99 922.721,276.656 924.5,278.5C 922.048,277.935 919.715,277.268 917.5,276.5 Z"/></g>
<g><path style="opacity:1" fill="#a0a0a0" d="M 897.5,328.5 C 898.043,328.56 898.376,328.893 898.5,329.5C 886.673,330.824 875.007,330.824 863.5,329.5C 875.012,329.828 886.346,329.495 897.5,328.5 Z"/></g>
<g><path style="opacity:1" fill="#e04d4f" d="M 959.5,337.5 C 948.972,336.99 938.639,337.99 928.5,340.5C 938.445,335.255 948.779,334.255 959.5,337.5 Z"/></g>
<g><path style="opacity:1" fill="#ffd5d7" d="M 1097.5,337.5 C 1104.83,336.834 1112.33,336.5 1120,336.5C 1127.86,336.503 1135.36,337.169 1142.5,338.5C 1141.83,338.5 1141.17,338.5 1140.5,338.5C 1126.34,337.504 1112.01,337.171 1097.5,337.5 Z"/></g>
<g><path style="opacity:1" fill="#ffdbdb" d="M 349.5,337.5 C 367.995,336.338 386.662,336.171 405.5,337C 406.849,337.772 407.682,338.939 408,340.5C 408.818,346.349 408.652,352.015 407.5,357.5C 407.821,351.974 407.488,346.64 406.5,341.5C 406.5,341.167 406.5,340.833 406.5,340.5C 405.942,339.21 404.942,338.377 403.5,338C 385.503,337.5 367.503,337.333 349.5,337.5 Z"/></g>
<g><path style="opacity:1" fill="#d52d35" d="M 584.5,339.5 C 562.197,338.365 539.864,338.199 517.5,339C 516.667,339.833 515.833,340.667 515,341.5C 514.501,346.489 514.334,351.489 514.5,356.5C 518.167,356.5 521.833,356.5 525.5,356.5C 525.216,354.585 525.549,352.919 526.5,351.5C 526.5,353.5 526.5,355.5 526.5,357.5C 522.167,357.5 517.833,357.5 513.5,357.5C 513.5,352.5 513.5,347.5 513.5,342.5C 513.859,340.629 514.859,339.129 516.5,338C 538.5,337.333 560.5,337.333 582.5,338C 583.416,338.278 584.082,338.778 584.5,339.5 Z"/></g>
<g><path style="opacity:1" fill="#da313b" d="M 1334.5,345.5 C 1334.23,343.179 1334.9,341.179 1336.5,339.5C 1331.88,338.507 1327.21,338.173 1322.5,338.5C 1322.77,340.38 1322.1,341.713 1320.5,342.5C 1321.04,340.883 1321.37,339.216 1321.5,337.5C 1327.17,337.5 1332.83,337.5 1338.5,337.5C 1337.7,340.442 1336.36,343.109 1334.5,345.5 Z"/></g>
<g><path style="opacity:1" fill="#e16164" d="M 690.5,337.5 C 690.5,341.5 690.5,345.5 690.5,349.5C 692.099,349.232 693.432,349.566 694.5,350.5C 692.833,350.5 691.167,350.5 689.5,350.5C 689.182,345.968 689.515,341.634 690.5,337.5 Z"/></g>
<g><path style="opacity:1" fill="#dd3838" d="M 406.5,341.5 C 407.488,346.64 407.821,351.974 407.5,357.5C 403.03,358.486 398.363,358.819 393.5,358.5C 393.768,355.881 393.435,353.381 392.5,351C 385.842,350.5 379.175,350.334 372.5,350.5C 372.5,357.5 372.5,364.5 372.5,371.5C 371.801,364.63 371.134,357.63 370.5,350.5C 370.709,349.914 371.043,349.414 371.5,349C 380.548,348.806 389.548,348.306 398.5,347.5C 399.95,348.85 400.617,350.516 400.5,352.5C 401.978,352.238 403.311,352.571 404.5,353.5C 402.955,354.452 401.288,354.785 399.5,354.5C 399.5,353.167 399.5,351.833 399.5,350.5C 397.654,350.222 396.32,350.889 395.5,352.5C 395.938,353.506 396.604,353.506 397.5,352.5C 398.429,353.689 398.762,355.022 398.5,356.5C 401.167,356.5 403.833,356.5 406.5,356.5C 406.5,351.5 406.5,346.5 406.5,341.5 Z"/></g>
<g><path style="opacity:1" fill="#fabec0" d="M 513.5,342.5 C 513.5,347.5 513.5,352.5 513.5,357.5C 517.833,357.5 522.167,357.5 526.5,357.5C 522.03,358.486 517.363,358.819 512.5,358.5C 512.179,352.974 512.512,347.64 513.5,342.5 Z"/></g>
<g><path style="opacity:1" fill="#e34145" d="M 739.5,338.5 C 743.97,337.514 748.637,337.181 753.5,337.5C 754.677,343.873 756.01,350.206 757.5,356.5C 756.542,356.047 755.708,355.381 755,354.5C 754.83,352.285 754.163,350.285 753,348.5C 752.667,345.5 752.333,342.5 752,339.5C 747.934,338.536 743.767,338.203 739.5,338.5 Z"/></g>
<g><path style="opacity:1" fill="#ea2128" d="M 959.5,337.5 C 972.834,340.834 982.167,348.834 987.5,361.5C 989.162,370.41 989.829,379.41 989.5,388.5C 989.263,391.647 988.43,394.647 987,397.5C 975.154,417.663 957.654,425.163 934.5,420C 924.585,416.581 916.918,410.414 911.5,401.5C 912.88,401.038 913.547,400.038 913.5,398.5C 911.909,394.958 911.409,391.291 912,387.5C 912.855,390.115 914.188,392.448 916,394.5C 919.974,398.975 924.141,403.308 928.5,407.5C 931.725,409.029 934.891,410.696 938,412.5C 939.563,411.898 939.396,411.065 937.5,410C 931.739,408.747 928.739,405.247 928.5,399.5C 939.79,409.127 951.79,409.96 964.5,402C 980.546,383.497 978.879,366.831 959.5,352C 942.725,346.644 930.559,351.81 923,367.5C 921.529,373.431 921.196,379.431 922,385.5C 924.13,390.087 925.963,394.753 927.5,399.5C 926.504,399.414 925.671,399.748 925,400.5C 924.51,399.207 924.343,397.873 924.5,396.5C 923.5,396.5 922.5,396.5 921.5,396.5C 921.662,394.473 921.495,392.473 921,390.5C 919.982,391.706 919.482,391.373 919.5,389.5C 920.183,381.338 920.85,373.172 921.5,365C 920.833,363.333 920.167,361.667 919.5,360C 919.755,358.674 920.422,357.674 921.5,357C 921.167,356.667 920.833,356.333 920.5,356C 921.227,354.601 921.727,353.101 922,351.5C 923.156,350.007 923.99,350.174 924.5,352C 924.978,354.226 925.645,356.392 926.5,358.5C 927.167,355.5 927.833,352.5 928.5,349.5C 929.941,348.696 931.441,348.029 933,347.5C 935.428,349.741 937.928,349.908 940.5,348C 939.833,347.333 939.167,346.667 938.5,346C 934.344,346.052 930.51,345.219 927,343.5C 924.498,346.177 921.665,348.51 918.5,350.5C 916.806,352.554 915.639,354.888 915,357.5C 914,357.833 913,358.167 912,358.5C 909.166,361.953 909,365.453 911.5,369C 910.243,374.832 910.243,380.665 911.5,386.5C 910.5,386.5 909.5,386.5 908.5,386.5C 908.572,390.626 909.239,394.626 910.5,398.5C 902.657,381.703 904.157,365.703 915,350.5C 919.084,346.548 923.584,343.214 928.5,340.5C 938.639,337.99 948.972,336.99 959.5,337.5 Z"/></g>
<g><path style="opacity:1" fill="#ee1a24" d="M 1141.5,353.5 C 1141.49,351.983 1140.82,350.816 1139.5,350C 1136.17,349.833 1132.83,349.667 1129.5,349.5C 1125.76,349.514 1122.43,350.18 1119.5,351.5C 1118.17,372.833 1118.17,394.167 1119.5,415.5C 1119.5,416.5 1119.5,417.5 1119.5,418.5C 1115.17,418.5 1110.83,418.5 1106.5,418.5C 1106.22,394.478 1106.55,370.478 1107.5,346.5C 1117.84,346.334 1128.17,346.5 1138.5,347C 1141.92,347.29 1143.92,349.123 1144.5,352.5C 1143.68,353.386 1142.68,353.719 1141.5,353.5 Z"/></g>
<g><path style="opacity:1" fill="#dd4b4c" d="M 220.5,341.5 C 220.5,355.5 220.5,369.5 220.5,383.5C 220.665,387.182 220.499,390.848 220,394.5C 218.989,393.663 217.822,393.33 216.5,393.5C 216.736,390.774 215.903,388.441 214,386.5C 213.667,386.833 213.333,387.167 213,387.5C 212.51,386.207 212.343,384.873 212.5,383.5C 211.5,383.5 210.5,383.5 209.5,383.5C 209.5,381.833 209.5,380.167 209.5,378.5C 213.195,382.715 216.361,387.382 219,392.5C 219.168,375.328 219.668,358.328 220.5,341.5 Z"/></g>
<g><path style="opacity:1" fill="#d7393f" d="M 349.5,337.5 C 367.503,337.333 385.503,337.5 403.5,338C 404.942,338.377 405.942,339.21 406.5,340.5C 405.078,340.291 403.745,339.791 402.5,339C 385.17,338.5 367.837,338.333 350.5,338.5C 350.5,341.833 350.5,345.167 350.5,348.5C 354.416,348.025 357.749,349.025 360.5,351.5C 359.168,361.812 358.501,372.478 358.5,383.5C 358.354,394.926 358.854,406.26 360,417.5C 375.756,418.491 391.589,418.825 407.5,418.5C 407.082,419.222 406.416,419.722 405.5,420C 390.5,420.667 375.5,420.667 360.5,420C 360,419.5 359.5,419 359,418.5C 357.521,395.924 357.021,373.257 357.5,350.5C 354.833,350.5 352.167,350.5 349.5,350.5C 349.5,346.167 349.5,341.833 349.5,337.5 Z"/></g>
<g><path style="opacity:1" fill="#ec2228" d="M 406.5,340.5 C 406.5,340.833 406.5,341.167 406.5,341.5C 406.5,346.5 406.5,351.5 406.5,356.5C 403.833,356.5 401.167,356.5 398.5,356.5C 398.762,355.022 398.429,353.689 397.5,352.5C 396.604,353.506 395.938,353.506 395.5,352.5C 396.32,350.889 397.654,350.222 399.5,350.5C 399.5,351.833 399.5,353.167 399.5,354.5C 401.288,354.785 402.955,354.452 404.5,353.5C 403.311,352.571 401.978,352.238 400.5,352.5C 400.617,350.516 399.95,348.85 398.5,347.5C 389.548,348.306 380.548,348.806 371.5,349C 371.043,349.414 370.709,349.914 370.5,350.5C 371.134,357.63 371.801,364.63 372.5,371.5C 381.5,371.5 390.5,371.5 399.5,371.5C 399.5,376.167 399.5,380.833 399.5,385.5C 390.5,385.5 381.5,385.5 372.5,385.5C 372.187,392.755 372.52,399.921 373.5,407C 380.826,407.5 388.159,407.666 395.5,407.5C 387.098,408.828 378.598,408.828 370,407.5C 369.517,408.448 369.351,409.448 369.5,410.5C 379.548,410.838 389.548,410.838 399.5,410.5C 399.5,411.5 399.5,412.5 399.5,413.5C 398.022,413.238 396.689,413.571 395.5,414.5C 398.447,415.321 401.447,415.821 404.5,416C 389.925,416.823 375.425,416.656 361,415.5C 360.5,394.169 360.333,372.836 360.5,351.5C 357.749,349.025 354.416,348.025 350.5,348.5C 350.5,345.167 350.5,341.833 350.5,338.5C 367.837,338.333 385.17,338.5 402.5,339C 403.745,339.791 405.078,340.291 406.5,340.5 Z"/></g>
<g><path style="opacity:1" fill="#e7686c" d="M 527.5,350.5 C 532.68,349.185 538.014,349.185 543.5,350.5C 542.51,373.455 542.177,396.455 542.5,419.5C 547.167,419.5 551.833,419.5 556.5,419.5C 556.169,396.327 556.502,373.327 557.5,350.5C 557.5,373.833 557.5,397.167 557.5,420.5C 552.167,420.5 546.833,420.5 541.5,420.5C 541.5,397.167 541.5,373.833 541.5,350.5C 536.833,350.5 532.167,350.5 527.5,350.5 Z"/></g>
<g><path style="opacity:1" fill="#ec1c25" d="M 584.5,339.5 C 585.338,339.842 585.672,340.508 585.5,341.5C 585.5,346.833 585.5,352.167 585.5,357.5C 581.5,357.5 577.5,357.5 573.5,357.5C 573.795,355.265 573.461,353.265 572.5,351.5C 567.595,350.555 562.595,350.221 557.5,350.5C 556.502,373.327 556.169,396.327 556.5,419.5C 551.833,419.5 547.167,419.5 542.5,419.5C 542.177,396.455 542.51,373.455 543.5,350.5C 538.014,349.185 532.68,349.185 527.5,350.5C 527.5,351.167 527.167,351.5 526.5,351.5C 525.549,352.919 525.216,354.585 525.5,356.5C 521.833,356.5 518.167,356.5 514.5,356.5C 514.334,351.489 514.501,346.489 515,341.5C 515.833,340.667 516.667,339.833 517.5,339C 539.864,338.199 562.197,338.365 584.5,339.5 Z"/></g>
<g><path style="opacity:1" fill="#fcfbfb" d="M 928.5,399.5 C 928.167,399.5 927.833,399.5 927.5,399.5C 925.963,394.753 924.13,390.087 922,385.5C 921.196,379.431 921.529,373.431 923,367.5C 930.559,351.81 942.725,346.644 959.5,352C 978.879,366.831 980.546,383.497 964.5,402C 951.79,409.96 939.79,409.127 928.5,399.5 Z"/></g>
<g><path style="opacity:1" fill="#ffcace" d="M 1097.5,350.5 C 1100.17,350.5 1102.83,350.5 1105.5,350.5C 1105.5,373.5 1105.5,396.5 1105.5,419.5C 1105.5,419.833 1105.5,420.167 1105.5,420.5C 1104.5,397.673 1104.17,374.673 1104.5,351.5C 1101.94,351.802 1099.61,351.468 1097.5,350.5 Z"/></g>
<g><path style="opacity:1" fill="#e1282d" d="M 1097.5,337.5 C 1112.01,337.171 1126.34,337.504 1140.5,338.5C 1126.5,338.5 1112.5,338.5 1098.5,338.5C 1098.5,341.833 1098.5,345.167 1098.5,348.5C 1100.17,348.5 1101.83,348.5 1103.5,348.5C 1103.5,347.5 1103.5,346.5 1103.5,345.5C 1114.72,345.434 1125.88,344.768 1137,343.5C 1140.81,344.868 1144.48,346.534 1148,348.5C 1148.35,349.672 1148.19,350.838 1147.5,352C 1146.22,353.136 1145.22,354.469 1144.5,356C 1146.47,360.304 1146.97,364.804 1146,369.5C 1144.23,371.596 1142.9,373.929 1142,376.5C 1137.6,377.467 1133.1,377.8 1128.5,377.5C 1128.5,380.167 1128.5,382.833 1128.5,385.5C 1127.5,385.5 1126.5,385.5 1125.5,385.5C 1125.47,377.98 1124.3,377.98 1122,385.5C 1121.28,384.549 1120.45,384.383 1119.5,385C 1120.64,385.741 1120.64,386.575 1119.5,387.5C 1124.79,388.495 1130.13,388.828 1135.5,388.5C 1135.5,389.5 1135.5,390.5 1135.5,391.5C 1130.54,389.335 1125.54,389.002 1120.5,390.5C 1119.51,398.65 1119.17,406.983 1119.5,415.5C 1118.17,394.167 1118.17,372.833 1119.5,351.5C 1119.17,359.684 1119.51,367.684 1120.5,375.5C 1125.5,376.833 1130.5,376.833 1135.5,375.5C 1139.96,375.21 1142.79,372.877 1144,368.5C 1145.13,363.08 1144.3,358.08 1141.5,353.5C 1142.68,353.719 1143.68,353.386 1144.5,352.5C 1143.92,349.123 1141.92,347.29 1138.5,347C 1128.17,346.5 1117.84,346.334 1107.5,346.5C 1106.55,370.478 1106.22,394.478 1106.5,418.5C 1110.83,418.5 1115.17,418.5 1119.5,418.5C 1115.03,419.486 1110.36,419.819 1105.5,419.5C 1105.5,396.5 1105.5,373.5 1105.5,350.5C 1102.83,350.5 1100.17,350.5 1097.5,350.5C 1097.5,346.167 1097.5,341.833 1097.5,337.5 Z"/></g>
<g><path style="opacity:1" fill="#c63d48" d="M 1141.5,353.5 C 1140.18,352.058 1138.51,351.392 1136.5,351.5C 1131.36,350.512 1126.03,350.179 1120.5,350.5C 1120.5,358.833 1120.5,367.167 1120.5,375.5C 1119.51,367.684 1119.17,359.684 1119.5,351.5C 1122.43,350.18 1125.76,349.514 1129.5,349.5C 1132.83,349.667 1136.17,349.833 1139.5,350C 1140.82,350.816 1141.49,351.983 1141.5,353.5 Z"/></g>
<g><path style="opacity:1" fill="#ffcdd0" d="M 1136.5,351.5 C 1131.5,351.5 1126.5,351.5 1121.5,351.5C 1121.5,359.5 1121.5,367.5 1121.5,375.5C 1126.17,375.5 1130.83,375.5 1135.5,375.5C 1130.5,376.833 1125.5,376.833 1120.5,375.5C 1120.5,367.167 1120.5,358.833 1120.5,350.5C 1126.03,350.179 1131.36,350.512 1136.5,351.5 Z"/></g>
<g><path style="opacity:1" fill="#fcfcfa" d="M 1136.5,351.5 C 1138.51,351.392 1140.18,352.058 1141.5,353.5C 1144.3,358.08 1145.13,363.08 1144,368.5C 1142.79,372.877 1139.96,375.21 1135.5,375.5C 1130.83,375.5 1126.17,375.5 1121.5,375.5C 1121.5,367.5 1121.5,359.5 1121.5,351.5C 1126.5,351.5 1131.5,351.5 1136.5,351.5 Z"/></g>
<g><path style="opacity:1" fill="#ee1c23" d="M 1140.5,338.5 C 1141.17,338.5 1141.83,338.5 1142.5,338.5C 1150.24,339.904 1155.57,344.237 1158.5,351.5C 1159.31,357.464 1159.64,363.464 1159.5,369.5C 1159.44,370.609 1159.11,371.609 1158.5,372.5C 1155.51,372.33 1153.51,373.663 1152.5,376.5C 1151.91,376.291 1151.41,375.957 1151,375.5C 1148.67,376.813 1147.34,378.813 1147,381.5C 1146.32,379.311 1145.16,378.978 1143.5,380.5C 1142.61,381.325 1142.28,382.325 1142.5,383.5C 1140.13,383.149 1137.8,382.982 1135.5,383C 1137,384.797 1138.5,386.631 1140,388.5C 1140.49,387.207 1140.66,385.873 1140.5,384.5C 1142.33,383.948 1144,383.948 1145.5,384.5C 1145.07,385.293 1144.74,386.127 1144.5,387C 1146.04,387.383 1147.37,388.216 1148.5,389.5C 1147.91,393.66 1146.24,394.327 1143.5,391.5C 1142.5,393.167 1141.17,394.5 1139.5,395.5C 1138.72,394.271 1138.22,392.938 1138,391.5C 1137.33,392.252 1136.5,392.586 1135.5,392.5C 1135.5,392.167 1135.5,391.833 1135.5,391.5C 1135.5,390.5 1135.5,389.5 1135.5,388.5C 1130.13,388.828 1124.79,388.495 1119.5,387.5C 1120.64,386.575 1120.64,385.741 1119.5,385C 1120.45,384.383 1121.28,384.549 1122,385.5C 1124.3,377.98 1125.47,377.98 1125.5,385.5C 1126.5,385.5 1127.5,385.5 1128.5,385.5C 1128.5,382.833 1128.5,380.167 1128.5,377.5C 1133.1,377.8 1137.6,377.467 1142,376.5C 1142.9,373.929 1144.23,371.596 1146,369.5C 1146.97,364.804 1146.47,360.304 1144.5,356C 1145.22,354.469 1146.22,353.136 1147.5,352C 1148.19,350.838 1148.35,349.672 1148,348.5C 1144.48,346.534 1140.81,344.868 1137,343.5C 1125.88,344.768 1114.72,345.434 1103.5,345.5C 1103.5,346.5 1103.5,347.5 1103.5,348.5C 1101.83,348.5 1100.17,348.5 1098.5,348.5C 1098.5,345.167 1098.5,341.833 1098.5,338.5C 1112.5,338.5 1126.5,338.5 1140.5,338.5 Z"/></g>
<g><path style="opacity:1" fill="#d32d32" d="M 241.5,337.5 C 242.485,341.634 242.818,345.968 242.5,350.5C 239.941,350.198 237.607,350.532 235.5,351.5C 234.503,373.994 234.169,396.661 234.5,419.5C 229.833,419.5 225.167,419.5 220.5,419.5C 219.833,418.167 219.167,416.833 218.5,415.5C 219.922,415.75 220.922,416.583 221.5,418C 222.793,418.49 224.127,418.657 225.5,418.5C 228.167,418.5 230.833,418.5 233.5,418.5C 233.5,395.5 233.5,372.5 233.5,349.5C 235.881,348.58 238.214,348.58 240.5,349.5C 241.491,345.555 241.824,341.555 241.5,337.5 Z"/></g>
<g><path style="opacity:1" fill="#e78386" d="M 585.5,341.5 C 586.489,346.975 586.822,352.642 586.5,358.5C 581.833,358.5 577.167,358.5 572.5,358.5C 572.5,356.167 572.5,353.833 572.5,351.5C 573.461,353.265 573.795,355.265 573.5,357.5C 577.5,357.5 581.5,357.5 585.5,357.5C 585.5,352.167 585.5,346.833 585.5,341.5 Z"/></g>
<g><path style="opacity:1" fill="#de606c" d="M 735.5,354.5 C 735.59,357.152 734.924,359.485 733.5,361.5C 733.41,358.848 734.076,356.515 735.5,354.5 Z"/></g>
<g><path style="opacity:1" fill="#f8949c" d="M 235.5,351.5 C 235.5,374.5 235.5,397.5 235.5,420.5C 230.305,420.821 225.305,420.487 220.5,419.5C 225.167,419.5 229.833,419.5 234.5,419.5C 234.169,396.661 234.503,373.994 235.5,351.5 Z"/></g>
<g><path style="opacity:1" fill="#ec1f27" d="M 779.5,418.5 C 773.256,419.458 766.923,419.791 760.5,419.5C 755.978,401.042 751.144,382.709 746,364.5C 742.937,376.993 739.437,389.326 735.5,401.5C 733.989,400.498 732.322,399.831 730.5,399.5C 730.047,395.471 729.38,391.471 728.5,387.5C 730.108,383.049 730.775,378.382 730.5,373.5C 730.878,369.322 731.878,365.322 733.5,361.5C 734.924,359.485 735.59,357.152 735.5,354.5C 736.521,349.083 737.854,343.75 739.5,338.5C 743.767,338.203 747.934,338.536 752,339.5C 752.333,342.5 752.667,345.5 753,348.5C 754.163,350.285 754.83,352.285 755,354.5C 755.708,355.381 756.542,356.047 757.5,356.5C 758.301,358.042 758.634,359.708 758.5,361.5C 759.391,367.844 760.391,374.178 761.5,380.5C 762.141,381.993 763.141,382.993 764.5,383.5C 766.139,388.724 767.473,394.058 768.5,399.5C 769.298,399.043 769.631,398.376 769.5,397.5C 771.068,395.189 771.902,392.522 772,389.5C 772.689,388.643 773.522,387.977 774.5,387.5C 776.673,379.622 778.173,371.622 779,363.5C 779.684,361.641 780.684,359.974 782,358.5C 782.359,352.477 782.859,346.477 783.5,340.5C 784.058,339.21 785.058,338.377 786.5,338C 791.489,337.501 796.489,337.334 801.5,337.5C 801.5,341.833 801.5,346.167 801.5,350.5C 798.383,349.927 796.383,351.094 795.5,354C 789.928,375.453 784.595,396.953 779.5,418.5 Z"/></g>
<g><path style="opacity:1" fill="#e53337" d="M 783.5,340.5 C 782.859,346.477 782.359,352.477 782,358.5C 780.684,359.974 779.684,361.641 779,363.5C 778.173,371.622 776.673,379.622 774.5,387.5C 773.522,387.977 772.689,388.643 772,389.5C 771.902,392.522 771.068,395.189 769.5,397.5C 773.108,378.069 777.775,359.069 783.5,340.5 Z"/></g>
<g><path style="opacity:1" fill="#d15258" d="M 1158.5,351.5 C 1160.03,354.695 1160.7,358.195 1160.5,362C 1160.5,364.69 1160.16,367.19 1159.5,369.5C 1159.64,363.464 1159.31,357.464 1158.5,351.5 Z"/></g>
<g><path style="opacity:1" fill="#ea2229" d="M 1285.5,338.5 C 1286.83,338.5 1288.17,338.5 1289.5,338.5C 1289.83,338.5 1290.17,338.5 1290.5,338.5C 1290.71,339.922 1291.21,341.255 1292,342.5C 1292.17,352.009 1292.67,361.342 1293.5,370.5C 1297.35,371.878 1301.18,371.545 1305,369.5C 1309.69,360.111 1314.85,351.111 1320.5,342.5C 1322.1,341.713 1322.77,340.38 1322.5,338.5C 1327.21,338.173 1331.88,338.507 1336.5,339.5C 1334.9,341.179 1334.23,343.179 1334.5,345.5C 1329.53,356.787 1323.53,367.454 1316.5,377.5C 1322.44,386.388 1327.61,395.721 1332,405.5C 1334.14,407.278 1336.64,407.945 1339.5,407.5C 1339.5,411.833 1339.5,416.167 1339.5,420.5C 1334.49,420.666 1329.49,420.499 1324.5,420C 1323.67,419.085 1322.67,418.419 1321.5,418C 1316.01,408.859 1311.18,399.359 1307,389.5C 1305.67,387.004 1303.84,385.004 1301.5,383.5C 1303.8,380.082 1307.13,378.749 1311.5,379.5C 1311.65,378.448 1311.48,377.448 1311,376.5C 1309.99,377.337 1308.82,377.67 1307.5,377.5C 1307.57,374.916 1308.74,372.916 1311,371.5C 1311.29,373.044 1311.96,374.377 1313,375.5C 1313.69,372.734 1315.19,372.067 1317.5,373.5C 1318.59,372.609 1318.59,371.609 1317.5,370.5C 1318.17,369.833 1318.83,369.167 1319.5,368.5C 1316.05,368.135 1312.71,368.135 1309.5,368.5C 1304.72,371.932 1299.39,373.432 1293.5,373C 1293,372.5 1292.5,372 1292,371.5C 1291.5,364.842 1291.33,358.175 1291.5,351.5C 1290.5,351.5 1289.5,351.5 1288.5,351.5C 1288.5,350.5 1288.5,349.5 1288.5,348.5C 1289.5,348.5 1290.5,348.5 1291.5,348.5C 1291.66,347.127 1291.49,345.793 1291,344.5C 1289.56,345.87 1287.89,346.87 1286,347.5C 1283.86,353.976 1283.02,360.642 1283.5,367.5C 1284.5,367.5 1285.5,367.5 1286.5,367.5C 1286.32,369.936 1286.98,372.103 1288.5,374C 1286.88,375.923 1285.05,376.423 1283,375.5C 1280.78,364.665 1281.12,353.998 1284,343.5C 1286.32,342.225 1286.82,340.558 1285.5,338.5 Z"/></g>
<g><path style="opacity:1" fill="#dd4a54" d="M 1290.5,338.5 C 1291.79,339.058 1292.62,340.058 1293,341.5C 1293.5,351.161 1293.67,360.828 1293.5,370.5C 1292.67,361.342 1292.17,352.009 1292,342.5C 1291.21,341.255 1290.71,339.922 1290.5,338.5 Z"/></g>
<g><path style="opacity:1" fill="#df4248" d="M 708.5,341.5 C 711.576,349.842 713.91,358.508 715.5,367.5C 714.25,367.423 713.417,366.756 713,365.5C 711.341,357.592 709.841,349.592 708.5,341.5 Z"/></g>
<g><path style="opacity:1" fill="#ea2028" d="M 209.5,378.5 C 209.5,380.167 209.5,381.833 209.5,383.5C 210.5,383.5 211.5,383.5 212.5,383.5C 212.343,384.873 212.51,386.207 213,387.5C 213.333,387.167 213.667,386.833 214,386.5C 215.903,388.441 216.736,390.774 216.5,393.5C 217.822,393.33 218.989,393.663 220,394.5C 220.499,390.848 220.665,387.182 220.5,383.5C 221.29,384.609 221.79,385.942 222,387.5C 222.167,375.486 222.667,363.486 223.5,351.5C 224.198,373.856 224.865,396.189 225.5,418.5C 224.127,418.657 222.793,418.49 221.5,418C 220.922,416.583 219.922,415.75 218.5,415.5C 206.933,399.378 195.599,383.045 184.5,366.5C 183.021,362.53 182.354,362.863 182.5,367.5C 181.169,375.138 180.502,383.138 180.5,391.5C 180.502,399.862 181.169,407.862 182.5,415.5C 182.141,417.371 181.141,418.871 179.5,420C 173.175,420.5 166.842,420.666 160.5,420.5C 160.5,416.167 160.5,411.833 160.5,407.5C 163.365,407.945 165.865,407.278 168,405.5C 168.5,382.836 168.667,360.169 168.5,337.5C 173.179,337.334 177.845,337.501 182.5,338C 191.893,351.299 200.893,364.799 209.5,378.5 Z"/></g>
<g><path style="opacity:1" fill="#ed1c22" d="M 241.5,337.5 C 241.824,341.555 241.491,345.555 240.5,349.5C 238.214,348.58 235.881,348.58 233.5,349.5C 233.5,372.5 233.5,395.5 233.5,418.5C 230.833,418.5 228.167,418.5 225.5,418.5C 224.865,396.189 224.198,373.856 223.5,351.5C 222.667,363.486 222.167,375.486 222,387.5C 221.79,385.942 221.29,384.609 220.5,383.5C 220.5,369.5 220.5,355.5 220.5,341.5C 220.574,339.589 221.574,338.422 223.5,338C 229.491,337.501 235.491,337.334 241.5,337.5 Z"/></g>
<g><path style="opacity:1" fill="#df5151" d="M 1289.5,338.5 C 1288.17,338.5 1286.83,338.5 1285.5,338.5C 1280.83,338.5 1276.17,338.5 1271.5,338.5C 1271.5,342.167 1271.5,345.833 1271.5,349.5C 1274.17,349.5 1276.83,349.5 1279.5,349.5C 1279.5,372.5 1279.5,395.5 1279.5,418.5C 1283.83,418.5 1288.17,418.5 1292.5,418.5C 1292.17,406.655 1292.51,394.988 1293.5,383.5C 1293.5,395.833 1293.5,408.167 1293.5,420.5C 1288.17,420.5 1282.83,420.5 1277.5,420.5C 1277.5,397.167 1277.5,373.833 1277.5,350.5C 1275.17,350.5 1272.83,350.5 1270.5,350.5C 1270.5,346.167 1270.5,341.833 1270.5,337.5C 1277.02,337.177 1283.36,337.51 1289.5,338.5 Z"/></g>
<g><path style="opacity:1" fill="#ec1e26" d="M 690.5,337.5 C 695.511,337.334 700.511,337.501 705.5,338C 707.063,338.759 708.063,339.926 708.5,341.5C 709.841,349.592 711.341,357.592 713,365.5C 713.417,366.756 714.25,367.423 715.5,367.5C 717.585,374.342 718.918,381.342 719.5,388.5C 720.597,394.832 720.764,401.165 720,407.5C 722,403.5 724,403.5 726,407.5C 726.617,404.965 726.117,402.632 724.5,400.5C 725.015,398.775 725.682,397.108 726.5,395.5C 726.963,398.583 728.129,401.249 730,403.5C 730.667,407.5 730.667,411.5 730,415.5C 729.228,416.849 728.061,417.682 726.5,418C 722.179,418.499 717.846,418.666 713.5,418.5C 713.737,417.209 713.404,416.209 712.5,415.5C 706.611,393.88 700.611,372.214 694.5,350.5C 693.432,349.566 692.099,349.232 690.5,349.5C 690.5,345.5 690.5,341.5 690.5,337.5 Z"/></g>
<g><path style="opacity:1" fill="#e03b42" d="M 758.5,361.5 C 760.865,368.623 762.865,375.957 764.5,383.5C 763.141,382.993 762.141,381.993 761.5,380.5C 760.391,374.178 759.391,367.844 758.5,361.5 Z"/></g>
<g><path style="opacity:1" fill="#ed1b23" d="M 1285.5,338.5 C 1286.82,340.558 1286.32,342.225 1284,343.5C 1281.12,353.998 1280.78,364.665 1283,375.5C 1285.05,376.423 1286.88,375.923 1288.5,374C 1286.98,372.103 1286.32,369.936 1286.5,367.5C 1285.5,367.5 1284.5,367.5 1283.5,367.5C 1283.02,360.642 1283.86,353.976 1286,347.5C 1287.89,346.87 1289.56,345.87 1291,344.5C 1291.49,345.793 1291.66,347.127 1291.5,348.5C 1290.5,348.5 1289.5,348.5 1288.5,348.5C 1288.5,349.5 1288.5,350.5 1288.5,351.5C 1289.5,351.5 1290.5,351.5 1291.5,351.5C 1291.33,358.175 1291.5,364.842 1292,371.5C 1292.5,372 1293,372.5 1293.5,373C 1299.39,373.432 1304.72,371.932 1309.5,368.5C 1312.71,368.135 1316.05,368.135 1319.5,368.5C 1318.83,369.167 1318.17,369.833 1317.5,370.5C 1318.59,371.609 1318.59,372.609 1317.5,373.5C 1315.19,372.067 1313.69,372.734 1313,375.5C 1311.96,374.377 1311.29,373.044 1311,371.5C 1308.74,372.916 1307.57,374.916 1307.5,377.5C 1308.82,377.67 1309.99,377.337 1311,376.5C 1311.48,377.448 1311.65,378.448 1311.5,379.5C 1307.13,378.749 1303.8,380.082 1301.5,383.5C 1298.83,383.5 1296.17,383.5 1293.5,383.5C 1292.51,394.988 1292.17,406.655 1292.5,418.5C 1288.17,418.5 1283.83,418.5 1279.5,418.5C 1279.5,395.5 1279.5,372.5 1279.5,349.5C 1276.83,349.5 1274.17,349.5 1271.5,349.5C 1271.5,345.833 1271.5,342.167 1271.5,338.5C 1276.17,338.5 1280.83,338.5 1285.5,338.5 Z"/></g>
<g><path style="opacity:1" fill="#d94f4e" d="M 987.5,361.5 C 991.679,370.281 992.346,379.281 989.5,388.5C 989.829,379.41 989.162,370.41 987.5,361.5 Z"/></g>
<g><path style="opacity:1" fill="#f6171d" d="M 182.5,367.5 C 182.5,383.5 182.5,399.5 182.5,415.5C 181.169,407.862 180.502,399.862 180.5,391.5C 180.502,383.138 181.169,375.138 182.5,367.5 Z"/></g>
<g><path style="opacity:1" fill="#dd4646" d="M 184.5,366.5 C 183.833,382.833 183.167,399.167 182.5,415.5C 182.5,399.5 182.5,383.5 182.5,367.5C 182.354,362.863 183.021,362.53 184.5,366.5 Z"/></g>
<g><path style="opacity:1" fill="#f01a22" d="M 927.5,399.5 C 927.833,399.5 928.167,399.5 928.5,399.5C 928.739,405.247 931.739,408.747 937.5,410C 939.396,411.065 939.563,411.898 938,412.5C 934.891,410.696 931.725,409.029 928.5,407.5C 924.141,403.308 919.974,398.975 916,394.5C 914.188,392.448 912.855,390.115 912,387.5C 911.409,391.291 911.909,394.958 913.5,398.5C 913.547,400.038 912.88,401.038 911.5,401.5C 911.443,400.391 911.11,399.391 910.5,398.5C 909.239,394.626 908.572,390.626 908.5,386.5C 909.5,386.5 910.5,386.5 911.5,386.5C 910.243,380.665 910.243,374.832 911.5,369C 909,365.453 909.166,361.953 912,358.5C 913,358.167 914,357.833 915,357.5C 915.639,354.888 916.806,352.554 918.5,350.5C 921.665,348.51 924.498,346.177 927,343.5C 930.51,345.219 934.344,346.052 938.5,346C 939.167,346.667 939.833,347.333 940.5,348C 937.928,349.908 935.428,349.741 933,347.5C 931.441,348.029 929.941,348.696 928.5,349.5C 927.833,352.5 927.167,355.5 926.5,358.5C 925.645,356.392 924.978,354.226 924.5,352C 923.99,350.174 923.156,350.007 922,351.5C 921.727,353.101 921.227,354.601 920.5,356C 920.833,356.333 921.167,356.667 921.5,357C 920.422,357.674 919.755,358.674 919.5,360C 920.167,361.667 920.833,363.333 921.5,365C 920.85,373.172 920.183,381.338 919.5,389.5C 919.482,391.373 919.982,391.706 921,390.5C 921.495,392.473 921.662,394.473 921.5,396.5C 922.5,396.5 923.5,396.5 924.5,396.5C 924.343,397.873 924.51,399.207 925,400.5C 925.671,399.748 926.504,399.414 927.5,399.5 Z"/></g>
<g><path style="opacity:1" fill="#c44552" d="M 1120.5,390.5 C 1120.5,400.5 1120.5,410.5 1120.5,420.5C 1115.5,420.5 1110.5,420.5 1105.5,420.5C 1105.5,420.167 1105.5,419.833 1105.5,419.5C 1110.36,419.819 1115.03,419.486 1119.5,418.5C 1119.5,417.5 1119.5,416.5 1119.5,415.5C 1119.17,406.983 1119.51,398.65 1120.5,390.5 Z"/></g>
<g><path style="opacity:1" fill="#e33035" d="M 730.5,373.5 C 730.775,378.382 730.108,383.049 728.5,387.5C 729.38,391.471 730.047,395.471 730.5,399.5C 732.322,399.831 733.989,400.498 735.5,401.5C 734.148,407.575 732.481,413.575 730.5,419.5C 724.537,420.496 718.537,420.829 712.5,420.5C 712.5,418.833 712.5,417.167 712.5,415.5C 713.404,416.209 713.737,417.209 713.5,418.5C 717.846,418.666 722.179,418.499 726.5,418C 728.061,417.682 729.228,416.849 730,415.5C 730.667,411.5 730.667,407.5 730,403.5C 728.129,401.249 726.963,398.583 726.5,395.5C 725.682,397.108 725.015,398.775 724.5,400.5C 726.117,402.632 726.617,404.965 726,407.5C 724,403.5 722,403.5 720,407.5C 720.764,401.165 720.597,394.832 719.5,388.5C 720.91,392.658 722.076,396.992 723,401.5C 724.589,391.8 727.089,382.467 730.5,373.5 Z"/></g>
<g><path style="opacity:1" fill="#f01922" d="M 360.5,351.5 C 360.333,372.836 360.5,394.169 361,415.5C 375.425,416.656 389.925,416.823 404.5,416C 401.447,415.821 398.447,415.321 395.5,414.5C 396.689,413.571 398.022,413.238 399.5,413.5C 399.5,412.5 399.5,411.5 399.5,410.5C 389.548,410.838 379.548,410.838 369.5,410.5C 369.351,409.448 369.517,408.448 370,407.5C 378.598,408.828 387.098,408.828 395.5,407.5C 396.5,407.5 397.5,407.5 398.5,407.5C 398.5,405.167 398.5,402.833 398.5,400.5C 401.833,400.5 405.167,400.5 408.5,400.5C 408.5,406.5 408.5,412.5 408.5,418.5C 408.167,418.5 407.833,418.5 407.5,418.5C 391.589,418.825 375.756,418.491 360,417.5C 358.854,406.26 358.354,394.926 358.5,383.5C 358.501,372.478 359.168,361.812 360.5,351.5 Z"/></g>
<g><path style="opacity:1" fill="#e92129" d="M 1158.5,372.5 C 1156.24,377.763 1152.57,381.763 1147.5,384.5C 1152.09,390.677 1155.92,397.344 1159,404.5C 1160.73,406.451 1162.9,407.451 1165.5,407.5C 1165.5,411.5 1165.5,415.5 1165.5,419.5C 1161.17,419.5 1156.83,419.5 1152.5,419.5C 1150.63,419.141 1149.13,418.141 1148,416.5C 1144.09,408.347 1139.92,400.347 1135.5,392.5C 1136.5,392.586 1137.33,392.252 1138,391.5C 1138.22,392.938 1138.72,394.271 1139.5,395.5C 1141.17,394.5 1142.5,393.167 1143.5,391.5C 1146.24,394.327 1147.91,393.66 1148.5,389.5C 1147.37,388.216 1146.04,387.383 1144.5,387C 1144.74,386.127 1145.07,385.293 1145.5,384.5C 1144,383.948 1142.33,383.948 1140.5,384.5C 1140.66,385.873 1140.49,387.207 1140,388.5C 1138.5,386.631 1137,384.797 1135.5,383C 1137.8,382.982 1140.13,383.149 1142.5,383.5C 1142.28,382.325 1142.61,381.325 1143.5,380.5C 1145.16,378.978 1146.32,379.311 1147,381.5C 1147.34,378.813 1148.67,376.813 1151,375.5C 1151.41,375.957 1151.91,376.291 1152.5,376.5C 1153.51,373.663 1155.51,372.33 1158.5,372.5 Z"/></g>
<g><path style="opacity:1" fill="#e03137" d="M 408.5,418.5 C 408.5,412.5 408.5,406.5 408.5,400.5C 405.167,400.5 401.833,400.5 398.5,400.5C 398.5,402.833 398.5,405.167 398.5,407.5C 397.5,407.5 396.5,407.5 395.5,407.5C 396.388,404.946 396.721,402.279 396.5,399.5C 401.167,399.5 405.833,399.5 410.5,399.5C 410.666,405.176 410.499,410.843 410,416.5C 409.722,417.416 409.222,418.082 408.5,418.5 Z"/></g>
<g><path style="opacity:1" fill="#df6c75" d="M 779.5,418.5 C 776.742,419.818 773.576,420.485 770,420.5C 766.648,420.498 763.482,420.165 760.5,419.5C 766.923,419.791 773.256,419.458 779.5,418.5 Z"/></g>
<g><path style="opacity:1" fill="#d36668" d="M 1165.5,407.5 C 1166.48,411.634 1166.82,415.968 1166.5,420.5C 1161.64,420.819 1156.97,420.486 1152.5,419.5C 1156.83,419.5 1161.17,419.5 1165.5,419.5C 1165.5,415.5 1165.5,411.5 1165.5,407.5 Z"/></g>
</svg>
